<svg width="190" height="40" viewBox="0 0 190 40" fill="none" xmlns="http://www.w3.org/2000/svg">
<g clip-path="url(#clip0_212_1000)">
<rect x="9.40723" y="7.4071" width="25.1849" height="25.1852" rx="8" fill="#9D52FD"/>
<rect x="14.5635" width="3.84326" height="5.92592" rx="1.92163" fill="#9D52FD"/>
<rect x="20.0786" width="3.84326" height="5.92592" rx="1.92163" fill="#9D52FD"/>
<rect x="25.5942" width="3.84326" height="5.92592" rx="1.92163" fill="#9D52FD"/>
<rect x="2" y="27.4368" width="3.84329" height="5.92587" rx="1.92165" transform="rotate(-90 2 27.4368)" fill="#9D52FD"/>
<rect x="2" y="21.9214" width="3.84329" height="5.92587" rx="1.92165" transform="rotate(-90 2 21.9214)" fill="#9D52FD"/>
<rect x="2" y="16.4066" width="3.84329" height="5.92587" rx="1.92165" transform="rotate(-90 2 16.4066)" fill="#9D52FD"/>
<rect x="36.0742" y="27.4368" width="3.84329" height="5.92587" rx="1.92165" transform="rotate(-90 36.0742 27.4368)" fill="#9D52FD"/>
<rect x="36.0742" y="21.9213" width="3.84329" height="5.92587" rx="1.92165" transform="rotate(-90 36.0742 21.9213)" fill="#9D52FD"/>
<rect x="36.0742" y="16.4066" width="3.84329" height="5.92587" rx="1.92165" transform="rotate(-90 36.0742 16.4066)" fill="#9D52FD"/>
<rect x="14.5635" y="34.0741" width="3.84326" height="5.92592" rx="1.92163" fill="#9D52FD"/>
<rect x="20.0786" y="34.0741" width="3.84326" height="5.92592" rx="1.92163" fill="#9D52FD"/>
<rect x="25.5942" y="34.0741" width="3.84326" height="5.92592" rx="1.92163" fill="#9D52FD"/>
<path d="M60.5049 26.3628H56.4342L61.0206 12.4681H66.1768L70.7632 26.3628H66.6924L63.653 16.2946H63.5444L60.5049 26.3628ZM59.7451 20.8809H67.398V23.7033H59.7451V20.8809ZM75.8736 12.4681V26.3628H72.1014V12.4681H75.8736ZM81.4675 26.3628V12.4681H91.2372V15.5076H85.2397V17.8957H90.6402V20.9352H85.2397V26.3628H81.4675ZM92.6246 26.3628V12.4681H98.6222C99.6534 12.4681 100.556 12.6558 101.329 13.0312C102.103 13.4066 102.704 13.9471 103.134 14.6527C103.564 15.3583 103.778 16.2041 103.778 17.1901C103.778 18.1852 103.557 19.0242 103.114 19.7072C102.675 20.3902 102.057 20.9058 101.261 21.2541C100.47 21.6023 99.5449 21.7765 98.4865 21.7765H94.9042V18.8456H97.7266C98.1699 18.8456 98.5475 18.7913 98.8596 18.6827C99.1762 18.5697 99.4182 18.391 99.5856 18.1468C99.7575 17.9025 99.8434 17.5836 99.8434 17.1901C99.8434 16.7921 99.7575 16.4687 99.5856 16.2199C99.4182 15.9667 99.1762 15.7812 98.8596 15.6636C98.5475 15.5415 98.1699 15.4804 97.7266 15.4804H96.3968V26.3628H92.6246ZM100.766 19.9854L104.24 26.3628H100.142L96.7496 19.9854H100.766ZM118.847 19.4155C118.847 20.9623 118.546 22.2672 117.945 23.3301C117.343 24.3885 116.531 25.1914 115.509 25.7387C114.487 26.2814 113.347 26.5528 112.089 26.5528C110.823 26.5528 109.679 26.2792 108.657 25.7319C107.639 25.1801 106.829 24.375 106.228 23.3166C105.631 22.2537 105.332 20.9533 105.332 19.4155C105.332 17.8686 105.631 16.566 106.228 15.5076C106.829 14.4447 107.639 13.6418 108.657 13.0991C109.679 12.5518 110.823 12.2781 112.089 12.2781C113.347 12.2781 114.487 12.5518 115.509 13.0991C116.531 13.6418 117.343 14.4447 117.945 15.5076C118.546 16.566 118.847 17.8686 118.847 19.4155ZM114.966 19.4155C114.966 18.5832 114.855 17.8822 114.634 17.3123C114.417 16.7378 114.093 16.3036 113.664 16.0096C113.238 15.7111 112.714 15.5618 112.089 15.5618C111.465 15.5618 110.938 15.7111 110.509 16.0096C110.084 16.3036 109.76 16.7378 109.539 17.3123C109.321 17.8822 109.213 18.5832 109.213 19.4155C109.213 20.2477 109.321 20.951 109.539 21.5255C109.76 22.0954 110.084 22.5296 110.509 22.8281C110.938 23.1221 111.465 23.2691 112.089 23.2691C112.714 23.2691 113.238 23.1221 113.664 22.8281C114.093 22.5296 114.417 22.0954 114.634 21.5255C114.855 20.951 114.966 20.2477 114.966 19.4155ZM132.614 12.4681V26.3628H129.466L124.446 19.0627H124.364V26.3628H120.592V12.4681H123.795L128.734 19.7411H128.842V12.4681H132.614ZM134.019 15.5076V12.4681H146.095V15.5076H141.916V26.3628H138.198V15.5076H134.019ZM151.287 12.4681V26.3628H147.515V12.4681H151.287ZM153.075 26.3628V12.4681H163.089V15.5076H156.847V17.8957H162.573V20.9352H156.847V23.3234H163.062V26.3628H153.075ZM164.96 26.3628V12.4681H170.957C171.988 12.4681 172.891 12.6558 173.664 13.0312C174.438 13.4066 175.039 13.9471 175.469 14.6527C175.899 15.3583 176.113 16.2041 176.113 17.1901C176.113 18.1852 175.892 19.0242 175.449 19.7072C175.01 20.3902 174.392 20.9058 173.596 21.2541C172.805 21.6023 171.88 21.7765 170.822 21.7765H167.239V18.8456H170.062C170.505 18.8456 170.883 18.7913 171.195 18.6827C171.511 18.5697 171.753 18.391 171.921 18.1468C172.093 17.9025 172.178 17.5836 172.178 17.1901C172.178 16.7921 172.093 16.4687 171.921 16.2199C171.753 15.9667 171.511 15.7812 171.195 15.6636C170.883 15.5415 170.505 15.4804 170.062 15.4804H168.732V26.3628H164.96ZM173.101 19.9854L176.575 26.3628H172.477L169.085 19.9854H173.101Z" fill="white"/>
</g>
<defs>
<clipPath id="clip0_212_1000">
<rect width="190" height="40" fill="white"/>
</clipPath>
</defs>
</svg>
