<svg width="40" height="40" viewBox="0 0 40 40" fill="none" xmlns="http://www.w3.org/2000/svg">
<rect x="7.40723" y="7.4071" width="25.1849" height="25.1852" rx="8" fill="#9D52FD"/>
<rect x="12.5635" width="3.84326" height="5.92592" rx="1.92163" fill="#9D52FD"/>
<rect x="18.0786" width="3.84326" height="5.92592" rx="1.92163" fill="#9D52FD"/>
<rect x="23.5942" width="3.84326" height="5.92592" rx="1.92163" fill="#9D52FD"/>
<rect y="27.4368" width="3.84329" height="5.92587" rx="1.92165" transform="rotate(-90 0 27.4368)" fill="#9D52FD"/>
<rect y="21.9214" width="3.84329" height="5.92587" rx="1.92165" transform="rotate(-90 0 21.9214)" fill="#9D52FD"/>
<rect y="16.4066" width="3.84329" height="5.92587" rx="1.92165" transform="rotate(-90 0 16.4066)" fill="#9D52FD"/>
<rect x="34.0742" y="27.4368" width="3.84329" height="5.92587" rx="1.92165" transform="rotate(-90 34.0742 27.4368)" fill="#9D52FD"/>
<rect x="34.0742" y="21.9213" width="3.84329" height="5.92587" rx="1.92165" transform="rotate(-90 34.0742 21.9213)" fill="#9D52FD"/>
<rect x="34.0742" y="16.4066" width="3.84329" height="5.92587" rx="1.92165" transform="rotate(-90 34.0742 16.4066)" fill="#9D52FD"/>
<rect x="12.5635" y="34.0741" width="3.84326" height="5.92592" rx="1.92163" fill="#9D52FD"/>
<rect x="18.0786" y="34.0741" width="3.84326" height="5.92592" rx="1.92163" fill="#9D52FD"/>
<rect x="23.5942" y="34.0741" width="3.84326" height="5.92592" rx="1.92163" fill="#9D52FD"/>
</svg>
